<?xml version="1.0" encoding="utf-8"?>
<!-- Generator: Adobe Illustrator 21.1.0, SVG Export Plug-In . SVG Version: 6.00 Build 0)  -->
<svg version="1.0" id="Calque_1" xmlns="http://www.w3.org/2000/svg" xmlns:xlink="http://www.w3.org/1999/xlink" x="0px" y="0px"
	 viewBox="0 0 76.5 16.1" style="enable-background:new 0 0 76.5 16.1;" xml:space="preserve">
<g>
	<path d="M3.8,3.2H0V0.2h12.3v3.1H8.4v5.9H3.8V3.2z"/>
	<path d="M13.4,0.2H18v3.7c0,1,0.4,2.1,2.3,2.1h0c1.9,0,2.3-1.1,2.3-2.1V0.2h4.6v4.1c0,1.8-0.7,4.9-6.6,4.9H20
		c-5.9,0-6.6-3.2-6.6-4.9V0.2z"/>
	<path d="M34.1,9.3c-5.4,0-5.9-2-5.9-3.1V6.1h5.3c0,0.4,0.2,1,1.4,1c1.1,0,1.4-0.3,1.4-0.6v0c0-0.3-0.1-0.6-1.7-0.6l-1.9-0.1
		c-3.7-0.1-4.4-1.4-4.4-2.8V2.7C28.3,1.1,29.7,0,34,0h1.5c4.8,0,5.9,1.3,5.9,2.8v0.1h-5.2c0-0.3-0.2-0.7-1.4-0.7
		c-1.1,0-1.3,0.2-1.3,0.5v0c0,0.3,0.3,0.5,1.7,0.5l1.8,0c3.5,0.1,4.7,0.9,4.7,2.7v0.2c0,1.6-1,3.1-6.1,3.1H34.1z"/>
	<path d="M49.6,9.3c-6.1,0-6.9-2.6-6.9-4.5V4.4c0-1.9,0.8-4.4,6.9-4.4H50c5.9,0,6.7,2.5,6.7,3.8V4H52c-0.1-0.2-0.3-1.1-2.3-1.1
		c-2,0-2.4,0.9-2.4,1.7v0.1c0,0.8,0.4,1.8,2.4,1.8c2.1,0,2.3-1,2.3-1.2h4.6v0.3c0,1.2-0.8,3.8-6.7,3.8H49.6z"/>
	<path d="M65.9,8h-4.5L61,9.1h-4.6l4.2-8.9H67l4.5,8.9h-5.1L65.9,8z M63.7,2.9l-1.1,2.5h2.2L63.7,2.9z"/>
	<g>
		<path d="M72.4,2.3c0-1.1,0.9-2,2-2c1.1,0,2,0.9,2,2c0,1.1-0.9,2-2,2C73.4,4.3,72.4,3.5,72.4,2.3z M76.1,2.3c0-0.9-0.7-1.7-1.6-1.7
			c-0.9,0-1.6,0.7-1.6,1.7c0,1,0.7,1.7,1.6,1.7C75.4,4,76.1,3.3,76.1,2.3z M75.5,2.7c-0.1,0.5-0.5,0.9-1,0.9c-0.7,0-1.2-0.5-1.2-1.2
			c0-0.7,0.4-1.2,1.2-1.2c0.5,0,0.9,0.3,1,0.8h-0.3c-0.1-0.3-0.3-0.5-0.7-0.5c-0.5,0-0.8,0.4-0.8,0.9c0,0.5,0.3,0.9,0.8,0.9
			c0.4,0,0.6-0.2,0.7-0.5H75.5z"/>
	</g>
	<g>
		<path d="M1.4,13.9c0-0.2,0-0.3-0.1-0.4c-0.1-0.1-0.3-0.1-0.3-0.1c-0.3,0-0.4,0.2-0.5,0.2c0,0-0.1,0.1-0.1,0.6V15
			c0,0.7,0.2,0.8,0.5,0.8c0.1,0,0.5,0,0.5-0.6h0.4c0,0.9-0.7,0.9-0.8,0.9c-0.4,0-0.9,0-0.9-1.2v-0.8c0-0.8,0.4-1.1,1-1.1
			c0.6,0,0.8,0.3,0.8,0.9H1.4z"/>
		<path d="M3.3,13h0.5l1,3H4.3l-0.2-0.7H3L2.7,16H2.3L3.3,13z M3.5,13.4L3.5,13.4L3.1,15h1L3.5,13.4z"/>
		<path d="M6.7,13.9c0-0.2,0-0.3-0.1-0.4c-0.1-0.1-0.3-0.1-0.3-0.1c-0.3,0-0.4,0.2-0.5,0.2c0,0-0.1,0.1-0.1,0.6V15
			c0,0.7,0.2,0.8,0.5,0.8c0.1,0,0.5,0,0.5-0.6h0.4c0,0.9-0.7,0.9-0.8,0.9c-0.4,0-0.9,0-0.9-1.2v-0.8c0-0.8,0.4-1.1,1-1.1
			c0.6,0,0.8,0.3,0.8,0.9H6.7z"/>
		<path d="M9.6,13v0.3H8.8V16H8.4v-2.7H7.6V13H9.6z"/>
		<path d="M10.1,13h0.4V15c0,0.7,0.2,0.8,0.6,0.8c0.4,0,0.6-0.2,0.6-0.8V13H12v1.9c0,0.8-0.3,1.2-0.9,1.2c-0.6,0-0.9-0.3-0.9-1.2V13
			z"/>
		<path d="M13.2,15.1L13.2,15.1c0,0.5,0.3,0.6,0.5,0.6c0.3,0,0.5-0.1,0.5-0.5c0-0.7-1.3-0.6-1.3-1.5c0-0.5,0.4-0.8,0.9-0.8
			c0.5,0,0.9,0.3,0.8,0.9h-0.4c0-0.3-0.1-0.5-0.5-0.5c-0.2,0-0.5,0.1-0.5,0.4c0,0.7,1.3,0.6,1.3,1.5c0,0.6-0.4,0.8-0.9,0.8
			c-0.9,0-0.9-0.7-0.9-1H13.2z"/>
		<path d="M16.5,13h0.4V15c0,0.7,0.2,0.8,0.6,0.8S18,15.6,18,15V13h0.4v1.9c0,0.8-0.3,1.2-0.9,1.2s-0.9-0.3-0.9-1.2V13z"/>
		<path d="M21.4,13v3h-0.5l-1.2-2.6h0V16h-0.3v-3h0.5l1.2,2.6h0V13H21.4z"/>
		<path d="M23.6,15.1c0,0.3,0,0.7,0.4,0.7c0.4,0,0.4-0.3,0.4-0.7v-2h0.4v2.3c0,0.2,0,0.8-0.8,0.8c-0.2,0-0.5-0.1-0.6-0.3
			c-0.1-0.2-0.1-0.5-0.1-0.7H23.6z"/>
		<path d="M25.7,14.9v-1c0-0.6,0.3-1,0.9-1s0.9,0.4,0.9,1v1c0,0.8-0.3,1.2-0.9,1.2S25.7,15.8,25.7,14.9z M27.2,15v-1
			c0-0.6-0.4-0.6-0.6-0.6c-0.1,0-0.6,0-0.6,0.6v1c0,0.7,0.2,0.8,0.6,0.8S27.2,15.6,27.2,15z"/>
		<path d="M28.4,13h0.4V15c0,0.7,0.2,0.8,0.6,0.8c0.4,0,0.6-0.2,0.6-0.8V13h0.4v1.9c0,0.8-0.3,1.2-0.9,1.2c-0.6,0-0.9-0.3-0.9-1.2
			V13z"/>
		<path d="M31.5,14.7V16h-0.4v-3h1c0.5,0,0.7,0.4,0.7,0.7c0,0.4-0.2,0.6-0.5,0.7v0c0.3,0.1,0.5,0.2,0.5,0.8c0,0.1,0,0.6,0.1,0.8
			h-0.4c-0.1-0.2-0.1-0.6-0.1-1c0-0.4-0.3-0.4-0.5-0.4H31.5z M31.5,14.3h0.6c0.3,0,0.4-0.2,0.4-0.5c0-0.2-0.1-0.5-0.4-0.5h-0.6V14.3
			z"/>
		<path d="M36.1,13.9c0-0.2,0-0.3-0.1-0.4c-0.1-0.1-0.3-0.1-0.3-0.1c-0.3,0-0.4,0.2-0.5,0.2c0,0-0.1,0.1-0.1,0.6V15
			c0,0.7,0.2,0.8,0.5,0.8c0.1,0,0.5,0,0.5-0.6h0.4c0,0.9-0.7,0.9-0.8,0.9c-0.4,0-0.9,0-0.9-1.2v-0.8c0-0.8,0.4-1.1,1-1.1
			c0.6,0,0.8,0.3,0.8,0.9H36.1z"/>
		<path d="M38,13h0.5l1,3H39l-0.2-0.7h-1.2L37.4,16H37L38,13z M38.2,13.4L38.2,13.4L37.8,15h1L38.2,13.4z"/>
		<path d="M41.4,13.9c0-0.2,0-0.3-0.1-0.4c-0.1-0.1-0.3-0.1-0.3-0.1c-0.3,0-0.4,0.2-0.5,0.2c0,0-0.1,0.1-0.1,0.6V15
			c0,0.7,0.2,0.8,0.5,0.8c0.1,0,0.5,0,0.5-0.6h0.4c0,0.9-0.7,0.9-0.8,0.9c-0.4,0-0.9,0-0.9-1.2v-0.8c0-0.8,0.4-1.1,1-1.1
			c0.6,0,0.8,0.3,0.8,0.9H41.4z"/>
		<path d="M44.3,13v0.3h-0.8V16h-0.4v-2.7h-0.8V13H44.3z"/>
		<path d="M44.8,13h0.4V15c0,0.7,0.2,0.8,0.6,0.8c0.4,0,0.6-0.2,0.6-0.8V13h0.4v1.9c0,0.8-0.3,1.2-0.9,1.2c-0.6,0-0.9-0.3-0.9-1.2
			V13z"/>
		<path d="M47.9,15.1L47.9,15.1c0,0.5,0.3,0.6,0.5,0.6c0.3,0,0.5-0.1,0.5-0.5c0-0.7-1.3-0.6-1.3-1.5c0-0.5,0.4-0.8,0.9-0.8
			c0.5,0,0.9,0.3,0.8,0.9h-0.4c0-0.3-0.1-0.5-0.5-0.5c-0.2,0-0.5,0.1-0.5,0.4c0,0.7,1.3,0.6,1.3,1.5c0,0.6-0.4,0.8-0.9,0.8
			c-0.9,0-0.9-0.7-0.9-1H47.9z"/>
		<path d="M52.9,13v0.3h-0.8V16h-0.4v-2.7H51V13H52.9z"/>
		<path d="M53.5,14.9v-1c0-0.6,0.3-1,0.9-1s0.9,0.4,0.9,1v1c0,0.8-0.3,1.2-0.9,1.2S53.5,15.8,53.5,14.9z M55,15v-1
			c0-0.6-0.4-0.6-0.6-0.6c-0.1,0-0.6,0-0.6,0.6v1c0,0.7,0.2,0.8,0.6,0.8S55,15.6,55,15z"/>
		<path d="M56.3,13h0.4V15c0,0.7,0.2,0.8,0.6,0.8s0.6-0.2,0.6-0.8V13h0.4v1.9c0,0.8-0.3,1.2-0.9,1.2s-0.9-0.3-0.9-1.2V13z"/>
		<path d="M59.2,15.1c0,0.3,0,0.7,0.4,0.7c0.4,0,0.4-0.3,0.4-0.7v-2h0.4v2.3c0,0.2,0,0.8-0.8,0.8c-0.2,0-0.5-0.1-0.6-0.3
			c-0.1-0.2-0.1-0.5-0.1-0.7H59.2z"/>
		<path d="M61.3,14.9v-1c0-0.6,0.3-1,0.9-1s0.9,0.4,0.9,1v1c0,0.8-0.3,1.2-0.9,1.2S61.3,15.8,61.3,14.9z M62.8,15v-1
			c0-0.6-0.4-0.6-0.6-0.6c-0.1,0-0.6,0-0.6,0.6v1c0,0.7,0.2,0.8,0.6,0.8S62.8,15.6,62.8,15z"/>
		<path d="M64,13h0.4V15c0,0.7,0.2,0.8,0.6,0.8c0.4,0,0.6-0.2,0.6-0.8V13h0.4v1.9c0,0.8-0.3,1.2-0.9,1.2c-0.6,0-0.9-0.3-0.9-1.2V13z
			"/>
		<path d="M67.2,14.7V16h-0.4v-3h1c0.5,0,0.7,0.4,0.7,0.7c0,0.4-0.2,0.6-0.5,0.7v0c0.3,0.1,0.5,0.2,0.5,0.8c0,0.1,0,0.6,0.1,0.8
			h-0.4c-0.1-0.2-0.1-0.6-0.1-1c0-0.4-0.3-0.4-0.5-0.4H67.2z M67.2,14.3h0.6c0.3,0,0.4-0.2,0.4-0.5c0-0.2-0.1-0.5-0.4-0.5h-0.6V14.3
			z"/>
		<path d="M69.6,15.1L69.6,15.1c0,0.5,0.3,0.6,0.5,0.6c0.3,0,0.5-0.1,0.5-0.5c0-0.7-1.3-0.6-1.3-1.5c0-0.5,0.4-0.8,0.9-0.8
			c0.5,0,0.9,0.3,0.8,0.9h-0.4c0-0.3-0.1-0.5-0.5-0.5c-0.2,0-0.5,0.1-0.5,0.4c0,0.7,1.3,0.6,1.3,1.5c0,0.6-0.4,0.8-0.9,0.8
			c-0.9,0-0.9-0.7-0.9-1H69.6z"/>
	</g>
</g>
</svg>
